<svg xmlns="http://www.w3.org/2000/svg" xmlns:svg="http://www.w3.org/2000/svg" id="svg2" width="86.857" height="87.988" version="1.1"><defs id="defs4"><marker id="StopS" orient="auto" refX="0" refY="0" style="overflow:visible"><path id="path4482" d="M 0.0,5.65 L 0.0,-5.65" transform="scale(0.2)" style="fill:none;fill-opacity:.75;fill-rule:evenodd;stroke:#000;stroke-width:1pt"/></marker><marker style="overflow:visible" id="InfiniteLineEnd" orient="auto" refX="0" refY="0"><g id="g4542"><circle id="circle4544" cx="3" cy="0" r=".8"/><circle id="circle4546" cx="6.5" cy="0" r=".8"/><circle id="circle4548" cx="10" cy="0" r=".8"/></g></marker></defs><metadata id="metadata7"/><g id="layer1" transform="translate(-4.2786224,-5.072855)"><path style="fill:none;stroke:#576c93;stroke-width:14.30000061;stroke-linecap:round;stroke-linejoin:miter;stroke-miterlimit:54.299999999999997;stroke-opacity:1;stroke-dasharray:none;marker-start:none;marker-mid:none;marker-end:none;fill-opacity:1" id="path2989" d="m 508.57144,426.64789 c -3.43806,2.14879 -4.59275,-3.5743 -3.57144,-5.71429 2.7677,-5.79923 10.8237,-4.9751 15.00002,-1.42859 7.47045,6.34388 5.83566,17.9636 -0.71427,24.28574 -9.61227,9.27801 -25.20917,6.74617 -33.57146,-2.85711 -11.14562,-12.79967 -7.67943,-32.49344 4.99997,-42.8572 15.95572,-13.04172 39.79642,-8.62475 52.14291,7.14283 14.95327,19.09664 9.57712,47.10999 -9.28567,61.42864 -22.22915,16.87403 -54.43019,10.53392 -70.71437,-11.42853 -18.80072,-25.3565 -11.49367,-61.7548 13.57138,-80.00009 28.4805,-20.73146 69.08251,-12.45549 89.28582,15.71423 22.66506,31.60216 13.4188,76.41248 -17.85708,98.57154 -34.48454,24.43241 -83.15369,14.54436 -107.42395,-19.38811" transform="matrix(0.56912448,0,0,0.57261998,-242.05446,-199.0795)"/></g></svg>