<?xml version="1.0" standalone="no"?>
<!DOCTYPE svg PUBLIC "-//W3C//DTD SVG 20010904//EN"
 "http://www.w3.org/TR/2001/REC-SVG-20010904/DTD/svg10.dtd">
<svg version="1.0" xmlns="http://www.w3.org/2000/svg"
 width="700.000000pt" height="700.000000pt" viewBox="0 0 700.000000 700.000000"
 preserveAspectRatio="xMidYMid meet">
<metadata>
Created by potrace 1.11, written by Peter Selinger 2001-2013
</metadata>
<g transform="translate(0.000000,700.000000) scale(0.100000,-0.100000)"
fill="#000000" stroke="none">
<path d="M3657 6474 c-1 -1 -56 -4 -122 -8 -66 -3 -138 -8 -160 -11 -52 -7
-100 -14 -149 -20 -82 -11 -276 -57 -405 -96 -693 -207 -1305 -657 -1675
-1229 -84 -130 -78 -120 -150 -260 -61 -120 -133 -280 -141 -315 -2 -5 -13
-39 -25 -75 -21 -62 -60 -218 -80 -325 -6 -27 -12 -61 -15 -75 -3 -14 -8 -52
-11 -85 -4 -33 -8 -62 -9 -65 -24 -41 -24 -799 -1 -839 2 -3 6 -28 10 -56 5
-42 15 -96 51 -256 28 -126 155 -451 242 -618 55 -107 151 -263 190 -311 6 -8
41 -52 77 -97 141 -176 417 -433 604 -564 197 -137 406 -238 657 -318 146 -47
368 -107 435 -117 62 -10 373 -12 467 -3 43 4 103 10 133 13 459 44 914 234
1286 537 145 118 335 324 429 464 22 33 43 62 46 65 16 13 136 233 176 323 75
171 147 405 168 554 3 23 9 57 12 75 3 18 7 128 9 243 2 210 -7 307 -46 470
-92 380 -279 705 -570 989 -127 124 -193 177 -320 257 -196 124 -409 205 -630
239 -41 6 -88 14 -105 17 -89 15 -411 8 -515 -11 -184 -34 -330 -85 -480 -168
-133 -74 -236 -154 -371 -288 -131 -131 -214 -236 -288 -365 -71 -124 -138
-304 -166 -445 -24 -124 -25 -361 -1 -489 34 -182 110 -369 209 -515 54 -80
70 -98 162 -192 170 -172 361 -283 570 -332 119 -28 154 -33 255 -33 429 -4
801 236 948 611 102 263 73 553 -81 789 -27 41 -54 79 -60 86 -7 6 -26 27 -43
47 -52 59 -135 121 -204 152 -55 25 -77 30 -145 29 -295 -2 -538 -220 -530
-473 3 -84 16 -129 52 -177 28 -38 49 -51 97 -59 76 -12 144 47 205 179 43 93
60 112 95 103 34 -8 179 -153 206 -206 32 -63 30 -128 -8 -212 -145 -320 -444
-428 -744 -271 -201 105 -356 336 -394 588 -9 64 -11 257 -2 311 21 127 105
261 263 420 166 167 282 242 445 287 104 29 459 31 560 4 210 -57 371 -164
605 -401 116 -118 188 -216 234 -318 31 -67 67 -187 76 -253 4 -22 9 -53 12
-70 18 -108 23 -339 8 -431 -3 -19 -8 -51 -11 -71 -9 -65 -54 -223 -85 -301
-25 -64 -60 -134 -111 -224 -27 -48 -147 -206 -203 -265 -251 -274 -665 -476
-1040 -508 -80 -6 -277 -7 -315 -1 -14 3 -48 7 -77 10 -71 8 -174 31 -268 59
-294 90 -554 248 -785 476 -199 198 -336 400 -453 671 -85 197 -137 391 -173
650 -8 54 -8 208 0 258 3 21 8 57 11 82 16 123 98 422 157 570 179 456 571
894 1047 1170 288 167 603 275 956 327 79 11 427 10 515 -2 366 -50 713 -178
1055 -388 471 -289 886 -725 1126 -1182 126 -239 203 -528 235 -875 13 -148
19 -491 10 -585 -2 -22 -7 -80 -10 -130 -7 -94 -13 -159 -21 -210 -3 -16 -7
-48 -11 -70 -22 -151 -68 -376 -103 -500 -30 -105 -33 -129 -16 -115 34 28
216 385 278 545 51 132 84 248 113 390 1 6 6 35 13 65 6 30 13 78 17 105 3 28
7 52 9 55 2 3 6 32 10 65 3 33 8 74 10 90 5 35 5 301 0 360 -1 22 -5 60 -8 85
-4 25 -13 101 -22 170 -9 69 -18 133 -21 142 -3 10 -7 29 -10 43 -2 14 -6 35
-8 48 -34 198 -250 711 -441 1047 -234 413 -560 765 -915 989 -30 19 -56 39
-58 43 -2 4 -7 8 -12 8 -4 0 -56 28 -116 63 -148 85 -344 180 -494 240 -130
52 -365 122 -475 141 -16 3 -53 10 -82 15 -29 6 -74 13 -100 16 -26 4 -59 8
-73 11 -56 9 -385 24 -393 18z"/>
</g>
</svg>
